<svg width="312" height="312" viewBox="0 0 312 312" fill="none" xmlns="http://www.w3.org/2000/svg">
<path d="M133.659 233.087C141.211 222.683 142.469 204.76 146.371 191.849C148.385 185.582 151.532 183.201 149.518 178.438C146.497 171.92 126.358 159.762 116.289 148.355C108.863 139.832 108.485 133.69 114.653 121.532C122.96 108.246 134.162 98.9705 145.868 89.5698C148.637 87.439 158.706 78.9157 161.979 78.289C164.622 77.7876 167.517 81.6732 169.027 84.3054C171.67 89.0684 175.069 98.4691 176.705 103.608L184.886 128.677C186.523 133.941 189.166 140.083 193.445 144.344C196.718 147.478 213.081 159.636 222.521 169.162C226.548 173.173 230.324 178.187 233.219 181.07C235.107 182.825 239.764 187.462 239.89 187.964C239.387 188.089 235.233 183.702 232.59 180.819C231.079 179.44 227.052 177.184 224.157 175.555C221.765 174.176 218.619 170.917 217.234 169.288C214.717 166.53 210.437 166.279 210.437 166.279C216.857 165.402 223.276 161.516 223.527 154.372C223.653 150.737 221.765 144.971 215.975 143.968C210.815 143.342 203.011 145.974 194.704 149.107C190.676 151.113 193.194 154.748 197.095 168.034C199.865 177.56 199.613 176.933 196.466 180.443L165.377 213.91C160.972 218.422 151.658 229.327 147.882 230.079C146.245 230.329 145.994 227.447 148.007 221.806C151.909 211.904 160.72 198.743 163.237 183.451C164.622 173.549 161.979 169.914 156.189 160.388C149.392 149.609 141.84 142.464 143.98 136.949C144.483 135.445 146.497 134.442 149.266 135.32C153.923 136.448 166.384 142.464 173.684 146.35C176.831 148.105 179.726 150.236 180.229 152.366C182.998 160.764 170.16 172.923 162.105 181.07C154.049 189.217 155.056 192.225 158.329 197.615C163.363 203.005 167.013 205.888 165.251 208.52C159.084 210.149 138.316 197.991 138.567 192.852" stroke="#070808" stroke-width="1.5" stroke-miterlimit="10" stroke-linecap="round" stroke-linejoin="round"/>
<path d="M222.143 224.814C212.199 210.4 207.417 191.348 203.263 173.299C200.62 163.522 200.368 162.645 196.466 162.895L130.89 169.664C126.107 170.416 123.463 171.418 120.946 175.179L92.6261 219.425M136.302 213.659C131.771 197.364 128.876 182.825 124.974 172.547C123.841 169.162 122.079 164.399 121.198 160.639C119.436 154.121 109.618 154.121 101.437 159.386C91.3675 165.151 83.4379 176.558 79.536 176.432C76.3893 176.934 78.1515 169.162 75.6341 168.536C71.6064 167.282 53.104 182.449 48.1952 182.574C45.552 182.073 55.2437 173.8 62.544 167.157L80.9205 150.361L101.437 125.418C103.325 123.412 105.465 120.529 107.856 119.652C112.135 118.148 119.184 122.786 117.925 126.546C116.037 130.933 104.08 131.936 98.0384 135.947C94.0107 138.203 88.3467 144.47 81.5499 149.734C78.4032 152.617 71.2288 163.522 74.2496 165.151C78.5291 167.658 89.4795 161.266 100.556 153.118C103.577 150.737 111.758 143.968 115.408 140.584C118.177 137.952 122.96 133.816 125.1 133.064C131.015 129.679 132.903 133.064 138.19 133.064C145.113 133.189 149.392 131.184 152.79 128.551C158.832 124.039 166.887 116.895 170.915 111.129C175.446 104.862 179.726 96.7144 175.824 89.9459C173.181 84.5562 165.125 84.0548 163.867 91.7007C162.482 99.7226 170.16 109.625 174.188 116.142C178.341 122.786 180.103 126.546 184.886 130.306C190.173 134.066 201.627 138.704 205.403 141.211C209.053 143.718 212.955 148.481 217.863 151.99C224.786 157.255 229.191 158.759 232.464 160.012C236.114 161.015 235.737 162.268 237.625 164.149C239.261 165.527 243.666 166.655 247.82 169.162C254.365 172.797 264.434 180.067 263.931 181.822C262.672 182.95 253.484 174.427 249.33 169.789L232.59 150.11C230.198 146.977 223.024 142.464 215.975 140.334C212.451 139.331 210.563 138.203 208.675 136.323C205.654 133.69 193.697 122.786 191.683 120.153C190.173 118.148 188.914 116.017 188.285 114.012C185.138 105.864 183.879 102.731 181.614 98.9705L175.824 89.8205" stroke="#070808" stroke-width="1.5" stroke-miterlimit="10" stroke-linecap="round" stroke-linejoin="round"/>
<path d="M132.4 131.56C129.253 127.549 139.952 129.303 144.231 131.936" stroke="#070808" stroke-width="1.5" stroke-miterlimit="10" stroke-linecap="round" stroke-linejoin="round"/>
<path d="M225.415 146.851C224.283 151.113 218.493 152.868 214.339 149.233" stroke="#070808" stroke-width="1.5" stroke-miterlimit="10" stroke-linecap="round" stroke-linejoin="round"/>
<path d="M146.371 183.326L140.204 190.094C137.309 193.353 139.197 194.857 146.119 199.244" stroke="#070808" stroke-width="1.5" stroke-miterlimit="10" stroke-linecap="round" stroke-linejoin="round"/>
</svg>
