<svg width="312" height="312" viewBox="0 0 312 312" fill="none" xmlns="http://www.w3.org/2000/svg">
<path d="M179.016 111.127C180.558 110.819 182.717 111.588 182.563 113.588C182.255 115.741 176.857 118.048 174.389 114.972C173.001 113.588 172.693 114.818 168.066 115.126C166.987 115.126 163.748 114.511 163.44 114.203C162.823 112.665 160.356 111.281 160.201 109.435C160.047 107.282 161.435 106.205 162.052 105.898L162.36 104.359C163.44 104.052 163.594 104.513 163.594 102.821L165.753 101.437C166.37 100.822 164.057 97.7458 167.912 97.2844C171.922 96.6691 172.23 97.7458 173.618 95.5925C174.698 94.0544 180.558 91.2859 185.185 92.6702C189.811 94.0544 196.288 98.0534 196.288 104.667" stroke="#070808" stroke-width="1.5" stroke-miterlimit="10" stroke-linecap="round"/>
<path d="M176.548 128.661C177.628 123.431 181.021 123.278 185.185 122.816C194.9 122.047 197.676 113.742 196.443 104.975" stroke="#070808" stroke-width="1.5" stroke-miterlimit="10" stroke-linecap="round"/>
<path d="M176.548 129.738C175.469 130.507 173.001 125.585 167.758 124.816C166.987 124.662 166.216 123.893 165.753 122.509C163.44 116.203 157.425 112.665 155.729 110.358C153.878 107.743 152.336 103.129 149.252 98.5148C147.093 94.9773 148.172 92.3625 145.859 86.2102C143.854 81.4422 140.77 74.8285 138.765 64.3696C137.685 58.9864 141.078 57.4483 142.158 52.6803C143.083 48.0661 144.471 47.2971 144.471 46.2204C143.546 44.8362 140.924 46.2204 139.844 49.758C139.69 50.527 137.757 52.3332 137.294 51.4104C135.443 48.0266 135.956 41.0642 133.026 37.5407C131.818 36.0882 130.553 35.6049 128.225 37.5407C125.038 40.1906 126.553 46.9893 126.091 49.7578" stroke="#070808" stroke-width="1.5" stroke-miterlimit="10" stroke-linecap="round"/>
<path d="M125.811 48.9889C116.249 49.6041 108.692 42.9904 108.538 34.0696C108.538 26.6868 113.936 18.3812 124.423 18.3812C132.288 18.2274 139.844 24.3797 139.999 33.3005C139.999 35.7614 139.382 39.7604 137.84 41.7599" stroke="#070808" stroke-width="1.5" stroke-miterlimit="10" stroke-linecap="round"/>
<path d="M126.091 49.2764C126.091 53.0105 126.119 56.6792 128.895 62.0624C131.208 65.6 131.208 73.4441 132.288 81.7497C134.138 94.2081 135.064 96.3614 135.681 97.2842C138.456 101.283 141.232 109.435 145.242 116.818C149.56 124.662 152.028 127.123 152.028 129.584C152.182 132.506 149.56 137.582 149.252 140.504C149.098 145.118 152.953 150.194 158.968 149.732C168.992 149.425 173.618 137.889 170.226 128.969C169.917 128.199 168.992 126.508 168.683 125.585" stroke="#070808" stroke-width="1.5" stroke-miterlimit="10" stroke-linecap="round"/>
<path d="M149.714 140.504C148.172 132.506 152.953 124.969 147.71 127.584C145.859 129.43 143.391 133.583 141.541 136.659C135.372 147.425 130.745 167.266 131.362 183.57C132.133 188.646 137.377 185.723 145.859 185.416C152.336 185.416 158.967 185.569 160.355 187.723C164.211 190.953 166.216 206.18 155.266 215.716C150.023 219.715 147.093 220.945 143.083 222.022C131.208 225.559 125.965 228.02 123.035 229.712C120.567 230.943 120.567 230.327 115.941 226.175C113.936 224.329 115.015 227.097 113.473 223.252C110.389 219.715 106.379 216.946 106.071 212.178C105.762 208.025 101.444 207.102 100.827 206.333L100.673 206.026C100.519 206.333 99.7476 206.18 100.519 206.487" stroke="#070808" stroke-width="1.5" stroke-miterlimit="10" stroke-linecap="round"/>
<path d="M100.673 206.026C100.673 205.411 99.9017 205.564 100.673 204.026C101.907 203.257 113.473 197.413 124.268 194.183C125.965 193.567 125.039 191.722 128.278 191.722C131.671 191.26 129.974 186.646 137.839 187.877C141.386 188.03 143.7 188.953 149.097 188.799C158.196 188.646 159.893 187.723 165.445 186.339C169.3 185.416 174.235 193.875 174.235 202.027C174.235 206.641 174.235 206.333 175.469 207.256C177.011 208.641 175.469 211.102 177.011 212.178C178.553 213.255 178.245 213.716 178.862 215.716C181.483 218.792 184.105 223.406 188.115 231.712" stroke="#070808" stroke-width="1.5" stroke-miterlimit="10" stroke-linecap="round"/>
<path d="M164.365 116.51C164.982 115.895 163.594 113.28 163.594 113.28" stroke="#070808" stroke-width="1.5" stroke-miterlimit="10" stroke-linecap="round"/>
<path d="M166.061 123.278C170.225 124.047 173.772 124.662 177.011 128.968C178.245 130.814 178.553 134.044 178.245 139.427C177.319 151.117 168.992 163.575 166.216 170.958C165.445 173.265 166.216 174.803 164.982 177.264C163.44 180.186 168.22 181.109 165.907 186.185" stroke="#070808" stroke-width="1.5" stroke-miterlimit="10" stroke-linecap="round"/>
<path d="M168.221 240.171H163.44C160.047 240.017 153.724 227.559 148.172 224.329V223.406" stroke="#070808" stroke-width="1.5" stroke-miterlimit="10" stroke-linecap="round"/>
<path d="M148.635 221.714C148.018 222.483 149.252 224.329 149.252 223.406" stroke="#070808" stroke-width="1.5" stroke-miterlimit="10" stroke-linecap="round"/>
<path d="M169.609 241.555C178.245 247.092 182.871 250.938 184.414 251.707C187.652 253.398 192.896 254.167 196.751 255.552C202.303 257.397 205.233 259.397 221.58 265.088C226.207 267.087 226.978 267.087 229.291 268.933C233.147 272.009 229.291 270.471 231.759 274.162C234.072 276.316 234.535 275.085 237.002 278.623L238.544 281.699C240.858 286.621 240.703 285.544 240.703 288.774C240.241 291.696 241.012 293.542 244.096 293.542C246.255 293.542 247.181 293.388 248.414 291.85C250.882 288.928 251.653 284.006 251.499 281.853C251.344 279.392 250.419 276.316 250.728 271.701C250.728 266.164 248.414 263.242 244.559 263.242C237.465 263.55 235.923 262.781 232.376 260.474C228.52 257.859 221.735 252.783 215.412 247.708C207.546 241.555 203.845 242.478 196.134 239.71C190.891 237.403 189.349 233.865 188.423 233.865C186.881 232.634 183.797 236.326 175.469 237.249C171.305 237.403 168.066 236.48 166.833 237.095C164.982 237.249 164.365 238.633 166.987 239.71L169.609 241.555Z" stroke="#070808" stroke-width="1.5" stroke-miterlimit="10" stroke-linecap="round"/>
<path d="M99.5934 206.487C98.0513 205.872 92.8078 209.41 83.7089 215.408C81.7041 216.946 81.8583 216.946 81.8583 216.946C80.1619 218.638 81.3957 216.639 81.3957 226.482C82.1667 247.4 86.3306 265.703 86.0222 274.009" stroke="#070808" stroke-width="1.5" stroke-miterlimit="10" stroke-linecap="round"/>
<path d="M85.8678 274.316C84.9425 273.24 84.1714 273.547 84.1714 273.547C82.6292 274.162 82.9377 277.854 81.3955 280.007C79.8533 281.853 75.0725 285.083 71.3713 286.159C67.8242 287.39 62.735 287.236 62.5808 290.466C62.735 292.465 64.8941 293.388 71.3713 293.542L78.1569 293.234L84.1714 293.388C94.9667 294.003 101.135 294.311 100.519 288.774C100.21 285.544 98.2053 283.237 98.0511 278.777C98.0511 275.854 97.28 276.469 96.5089 277.085C95.892 277.392 96.0462 276.623 96.8173 276.316C96.8173 263.242 100.364 251.245 100.21 244.016C100.21 237.402 98.0511 233.403 98.6679 231.712C99.9017 227.097 114.398 228.174 114.09 225.867" stroke="#070808" stroke-width="1.5" stroke-miterlimit="10" stroke-linecap="round"/>
</svg>
